<?xml version="1.0" encoding="UTF-8"?>
<!DOCTYPE svg PUBLIC "-//W3C//DTD SVG 1.1//EN" "http://www.w3.org/Graphics/SVG/1.1/DTD/svg11.dtd">
<svg xmlns="http://www.w3.org/2000/svg" version="1.1" width="2046px" height="926px" style="shape-rendering:geometricPrecision; text-rendering:geometricPrecision; image-rendering:optimizeQuality; fill-rule:evenodd; clip-rule:evenodd" xmlns:xlink="http://www.w3.org/1999/xlink">
<g><path style="opacity:0.966" fill="#c8b6af" d="M 804.5,-0.5 C 810.167,-0.5 815.833,-0.5 821.5,-0.5C 833.463,0.212481 844.297,4.21248 854,11.5C 861.226,20.0924 861.226,28.7591 854,37.5C 848.812,43.1683 842.979,48.0017 836.5,52C 799.072,72.2517 759.072,83.585 716.5,86C 675.757,146.063 637.423,206.396 601.5,267C 654.329,213.142 710.996,164.142 771.5,120C 790.724,106.55 811.057,94.8833 832.5,85C 847.45,78.1431 863.117,75.1431 879.5,76C 903.617,82.1241 917.117,97.6241 920,122.5C 921.541,144.254 918.208,165.254 910,185.5C 880.338,255.989 834.171,313.156 771.5,357C 742.892,376.3 711.559,388.967 677.5,395C 603.198,403.035 571.365,370.201 582,296.5C 572.26,308.977 563.26,321.977 555,335.5C 523.243,382.993 488.576,428.327 451,471.5C 437.403,486.101 422.903,499.601 407.5,512C 400.757,516.4 393.757,520.4 386.5,524C 375.847,527.296 365.181,527.296 354.5,524C 353.044,523.577 352.544,522.744 353,521.5C 377.129,503.382 399.462,483.048 420,460.5C 459.007,415.837 495.341,369.17 529,320.5C 579.609,241.605 632.442,164.272 687.5,88.5C 633.534,85.4942 579.534,83.6608 525.5,83C 498.375,84.0178 471.708,88.0178 445.5,95C 416.478,103.716 392.645,119.883 374,143.5C 359.232,164.683 355.565,187.683 363,212.5C 365.477,220.288 368.644,227.788 372.5,235C 370.335,238.966 367.502,239.466 364,236.5C 343.831,199.697 346.497,164.697 372,131.5C 401.86,100.488 438.36,82.655 481.5,78C 499.734,75.2844 518.067,73.7844 536.5,73.5C 573.843,74.754 611.176,76.254 648.5,78C 664.167,78.6667 679.833,78.6667 695.5,78C 711.833,57.6667 730.167,39.3333 750.5,23C 766.793,11.0149 784.793,3.18155 804.5,-0.5 Z M 815.5,9.5 C 822.928,9.51184 830.261,10.3452 837.5,12C 841.419,13.5403 844.919,15.7069 848,18.5C 849.59,20.6498 850.257,22.9832 850,25.5C 847.271,31.5634 843.104,36.3967 837.5,40C 811.085,55.6987 782.751,66.6987 752.5,73C 743.223,74.8269 733.889,75.8269 724.5,76C 742.859,50.9657 765.526,30.9657 792.5,16C 799.903,12.4034 807.569,10.2367 815.5,9.5 Z M 868.5,85.5 C 877.212,85.2384 885.212,87.405 892.5,92C 896.423,95.6768 898.923,100.177 900,105.5C 901.287,126.693 897.621,147.026 889,166.5C 858.514,241.981 809.347,302.148 741.5,347C 710.967,367.455 677.3,378.622 640.5,380.5C 610.194,380.356 592.694,365.356 588,335.5C 586.351,318.046 588.351,301.046 594,284.5C 646.867,231.612 702.7,182.446 761.5,137C 782.525,121.677 804.859,108.344 828.5,97C 841.425,91.2733 854.759,87.4399 868.5,85.5 Z"/></g>
<g><path style="opacity:0.941" fill="#c8b6af" d="M 938.5,308.5 C 949.877,306.338 956.544,310.838 958.5,322C 957.457,328.751 954.123,334.084 948.5,338C 941.831,342.67 934.831,346.837 927.5,350.5C 925.603,362.178 928.103,372.844 935,382.5C 939.133,387.634 943.633,392.468 948.5,397C 964.258,409.42 979.424,422.587 994,436.5C 1041.96,417.735 1091.46,412.235 1142.5,420C 1167.11,422.788 1191.44,427.121 1215.5,433C 1255.33,443.055 1295,453.722 1334.5,465C 1385.72,479.411 1437.88,487.578 1491,489.5C 1562.78,490.345 1628.62,471.179 1688.5,432C 1692.06,430.877 1694.06,432.211 1694.5,436C 1694.24,437.261 1693.57,438.261 1692.5,439C 1612.96,490.485 1526.3,508.485 1432.5,493C 1416.36,491.198 1400.36,488.532 1384.5,485C 1328.05,470.804 1271.71,456.137 1215.5,441C 1184.82,433.731 1153.82,428.398 1122.5,425C 1086.94,423.323 1051.94,426.99 1017.5,436C 1011.01,437.94 1004.68,440.273 998.5,443C 1009.68,460.998 1008.85,478.498 996,495.5C 986.426,507.076 975.592,517.243 963.5,526C 954.479,532.422 944.479,534.755 933.5,533C 924.816,528.464 921.316,521.298 923,511.5C 930.047,481.458 947.213,459.292 974.5,445C 958.761,430.716 942.928,416.549 927,402.5C 921.291,396.46 915.957,390.126 911,383.5C 897.453,358.663 900.953,336.496 921.5,317C 926.99,313.588 932.657,310.755 938.5,308.5 Z M 941.5,318.5 C 947.527,319.004 949.027,322.004 946,327.5C 940.838,332.995 934.838,337.329 928,340.5C 928.582,330.754 933.082,323.42 941.5,318.5 Z M 978.5,451.5 C 986.763,460.224 989.263,470.557 986,482.5C 979.208,498.625 968.708,511.792 954.5,522C 947.672,526.093 940.672,526.759 933.5,524C 930.092,518.459 929.592,512.626 932,506.5C 940.502,482.171 956.002,463.838 978.5,451.5 Z"/></g>
<g><path style="opacity:0.949" fill="#c9b7b0" d="M 255.5,652.5 C 257.136,653.749 258.303,655.416 259,657.5C 283.976,714.767 309.143,771.933 334.5,829C 329.581,829.802 324.748,829.635 320,828.5C 313.736,814.542 307.57,800.542 301.5,786.5C 270.505,785.333 239.505,785.167 208.5,786C 201.432,799.97 194.765,814.137 188.5,828.5C 183.533,829.662 178.533,829.829 173.5,829C 201.247,770.34 228.58,711.507 255.5,652.5 Z M 255.5,683.5 C 269.068,712.853 282.068,742.52 294.5,772.5C 267.831,772.667 241.165,772.5 214.5,772C 228.459,742.615 242.126,713.115 255.5,683.5 Z"/></g>
<g><path style="opacity:0.949" fill="#c9b7b0" d="M 919.5,652.5 C 921.136,653.749 922.303,655.416 923,657.5C 947.976,714.767 973.143,771.933 998.5,829C 993.581,829.802 988.748,829.635 984,828.5C 977.736,814.542 971.57,800.542 965.5,786.5C 934.505,785.333 903.505,785.167 872.5,786C 865.432,799.97 858.765,814.137 852.5,828.5C 847.533,829.662 842.533,829.829 837.5,829C 865.247,770.34 892.58,711.507 919.5,652.5 Z M 919.5,683.5 C 933.068,712.853 946.068,742.52 958.5,772.5C 931.831,772.667 905.165,772.5 878.5,772C 892.459,742.615 906.126,713.115 919.5,683.5 Z"/></g>
<g><path style="opacity:0.949" fill="#c9b7b0" d="M 1220.5,652.5 C 1247.41,648.83 1269.91,656.83 1288,676.5C 1291.31,681.451 1293.81,686.784 1295.5,692.5C 1291.9,696.133 1287.57,698.467 1282.5,699.5C 1282.07,690.136 1278.07,682.636 1270.5,677C 1248.74,663.024 1226.08,661.358 1202.5,672C 1178.66,686.547 1176.33,703.88 1195.5,724C 1200.28,727.721 1205.61,730.388 1211.5,732C 1225.85,734.252 1240.18,736.585 1254.5,739C 1275.01,743.517 1288.51,755.684 1295,775.5C 1297.38,795.241 1290.21,810.408 1273.5,821C 1243.67,836.862 1214.67,835.529 1186.5,817C 1178.32,810.484 1172.98,802.15 1170.5,792C 1173.41,788.118 1177.24,785.285 1182,783.5C 1183.13,793.933 1187.96,802.1 1196.5,808C 1214.26,818.824 1233.26,821.49 1253.5,816C 1270,811.007 1280,800.174 1283.5,783.5C 1281.67,771.833 1275.67,763 1265.5,757C 1259.77,754.202 1253.77,752.202 1247.5,751C 1235.12,749.279 1222.79,747.279 1210.5,745C 1189.15,740.317 1175.65,727.484 1170,706.5C 1168.63,687.417 1176.13,672.917 1192.5,663C 1201.32,657.786 1210.66,654.286 1220.5,652.5 Z"/></g>
<g><path style="opacity:0.949" fill="#c9b7b0" d="M 2045.5,828.5 C 2045.5,828.833 2045.5,829.167 2045.5,829.5C 2040.57,829.803 2035.74,829.469 2031,828.5C 2024.74,814.542 2018.57,800.542 2012.5,786.5C 1981.51,785.333 1950.51,785.167 1919.5,786C 1912.43,799.97 1905.77,814.137 1899.5,828.5C 1894.53,829.662 1889.53,829.829 1884.5,829C 1912.13,770.242 1939.63,711.409 1967,652.5C 1993.47,711.108 2019.64,769.775 2045.5,828.5 Z M 1966.5,683.5 C 1980.07,712.853 1993.07,742.52 2005.5,772.5C 1978.83,772.667 1952.16,772.5 1925.5,772C 1939.46,742.615 1953.13,713.115 1966.5,683.5 Z"/></g>
<g><path style="opacity:0.95" fill="#c9b7b0" d="M -0.5,654.5 C 23.8356,654.333 48.1689,654.5 72.5,655C 96.9862,659.492 112.486,673.658 119,697.5C 120.635,719.066 112.135,735.232 93.5,746C 87.4733,749.181 81.14,751.514 74.5,753C 53.8597,754.356 33.1931,754.856 12.5,754.5C 12.5,779.5 12.5,804.5 12.5,829.5C 8.16667,829.5 3.83333,829.5 -0.5,829.5C -0.5,771.167 -0.5,712.833 -0.5,654.5 Z M 12.5,667.5 C 31.8362,667.333 51.1695,667.5 70.5,668C 85.561,670.41 96.7276,678.244 104,691.5C 109.788,713.092 102.288,728.258 81.5,737C 77.9431,738.408 74.2765,739.408 70.5,740C 51.1695,740.5 31.8362,740.667 12.5,740.5C 12.5,716.167 12.5,691.833 12.5,667.5 Z"/></g>
<g><path style="opacity:0.968" fill="#c9b7b0" d="M 411.5,654.5 C 415.833,654.5 420.167,654.5 424.5,654.5C 424.333,692.835 424.5,731.168 425,769.5C 430.315,799.823 448.315,816.156 479,818.5C 505.398,816.966 522.732,803.633 531,778.5C 532.472,737.206 532.972,695.873 532.5,654.5C 536.833,654.5 541.167,654.5 545.5,654.5C 545.667,694.501 545.5,734.501 545,774.5C 539.507,801.661 523.673,819.828 497.5,829C 460.733,836.698 433.9,823.865 417,790.5C 414.186,783.429 412.519,776.096 412,768.5C 411.5,730.501 411.333,692.501 411.5,654.5 Z"/></g>
<g><path style="opacity:0.943" fill="#c9b7b0" d="M 643.5,654.5 C 647.833,654.5 652.167,654.5 656.5,654.5C 656.5,708.833 656.5,763.167 656.5,817.5C 689.167,817.5 721.833,817.5 754.5,817.5C 754.5,821.5 754.5,825.5 754.5,829.5C 717.5,829.5 680.5,829.5 643.5,829.5C 643.5,771.167 643.5,712.833 643.5,654.5 Z"/></g>
<g><path style="opacity:0.972" fill="#c9b7b0" d="M 1392.5,654.5 C 1396.83,654.5 1401.17,654.5 1405.5,654.5C 1405.5,712.833 1405.5,771.167 1405.5,829.5C 1401.17,829.5 1396.83,829.5 1392.5,829.5C 1392.5,771.167 1392.5,712.833 1392.5,654.5 Z"/></g>
<g><path style="opacity:0.943" fill="#c9b7b0" d="M 1509.5,654.5 C 1513.83,654.5 1518.17,654.5 1522.5,654.5C 1522.5,708.833 1522.5,763.167 1522.5,817.5C 1555.17,817.5 1587.83,817.5 1620.5,817.5C 1620.5,821.5 1620.5,825.5 1620.5,829.5C 1583.5,829.5 1546.5,829.5 1509.5,829.5C 1509.5,771.167 1509.5,712.833 1509.5,654.5 Z"/></g>
<g><path style="opacity:0.955" fill="#c9b7b0" d="M 1675.5,655.5 C 1680.23,654.176 1685.07,654.176 1690,655.5C 1711.85,703.864 1733.68,752.197 1755.5,800.5C 1777.32,752.197 1799.15,703.864 1821,655.5C 1825.75,654.365 1830.58,654.198 1835.5,655C 1808.93,714.226 1782.26,773.392 1755.5,832.5C 1729.07,773.322 1702.41,714.322 1675.5,655.5 Z"/></g>
<g><path style="opacity:0.834" fill="#ebe5de" d="M 1367.5,925.5 C 1367.17,925.5 1366.83,925.5 1366.5,925.5C 1374.55,908.399 1382.88,891.399 1391.5,874.5C 1393.17,873.167 1394.83,873.167 1396.5,874.5C 1388.33,890.833 1380.17,907.167 1372,923.5C 1370.38,924.099 1368.88,924.766 1367.5,925.5 Z"/></g>
<g><path style="opacity:0.817" fill="#ebe5df" d="M 130.5,877.5 C 136.359,877.842 141.692,879.675 146.5,883C 145.696,884.771 144.529,886.271 143,887.5C 132.709,879.714 124.376,881.38 118,892.5C 115.067,907.567 121.234,914.4 136.5,913C 138.519,912.55 140.352,911.717 142,910.5C 142.498,907.518 142.665,904.518 142.5,901.5C 138.5,901.5 134.5,901.5 130.5,901.5C 130.5,899.833 130.5,898.167 130.5,896.5C 136.167,896.5 141.833,896.5 147.5,896.5C 147.666,901.844 147.499,907.177 147,912.5C 138.438,919.373 129.271,920.206 119.5,915C 109.717,904.94 109.05,894.273 117.5,883C 121.474,880.005 125.807,878.171 130.5,877.5 Z"/></g>
<g><path style="opacity:0.836" fill="#ebe4df" d="M 881.5,877.5 C 887.934,877.526 893.267,879.86 897.5,884.5C 896.469,885.7 895.635,887.034 895,888.5C 886.9,880.733 878.9,880.733 871,888.5C 865.341,899.224 867.841,907.391 878.5,913C 881.5,913.667 884.5,913.667 887.5,913C 890.265,911.871 892.765,910.371 895,908.5C 896.434,908.93 897.601,909.764 898.5,911C 887.522,921.12 876.688,920.953 866,910.5C 859.322,896.875 862.489,886.375 875.5,879C 877.708,878.809 879.708,878.309 881.5,877.5 Z"/></g>
<g><path style="opacity:0.847" fill="#ebe4de" d="M 1162.5,877.5 C 1169.25,877.378 1174.91,879.711 1179.5,884.5C 1177.88,888.434 1175.88,888.934 1173.5,886C 1163.04,880.263 1155.21,882.763 1150,893.5C 1148.36,907.526 1154.53,914.026 1168.5,913C 1171.38,911.054 1174.38,909.721 1177.5,909C 1179.01,909.837 1179.51,911.004 1179,912.5C 1169,920.5 1159,920.5 1149,912.5C 1143.45,903.709 1143.12,894.709 1148,885.5C 1151.85,880.845 1156.69,878.178 1162.5,877.5 Z"/></g>
<g><path style="opacity:0.851" fill="#ebe4df" d="M 1694.5,877.5 C 1705.9,879.434 1711.57,886.267 1711.5,898C 1710.72,913.8 1702.72,920.134 1687.5,917C 1681.07,912.415 1678.07,906.082 1678.5,898C 1678.16,886.524 1683.5,879.691 1694.5,877.5 Z M 1692.5,882.5 C 1701.66,883.673 1706.33,889.007 1706.5,898.5C 1706.26,903.812 1704.26,908.312 1700.5,912C 1695.35,914.504 1690.85,913.671 1687,909.5C 1680.99,898.644 1682.82,889.644 1692.5,882.5 Z"/></g>
<g><path style="opacity:0.839" fill="#ebe4df" d="M 1850.5,877.5 C 1862.6,878.813 1868.6,885.646 1868.5,898C 1867.72,913.801 1859.72,920.134 1844.5,917C 1837.76,912.524 1834.76,906.19 1835.5,898C 1835.07,886.963 1840.07,880.13 1850.5,877.5 Z M 1849.5,882.5 C 1858.46,883.633 1863.13,888.8 1863.5,898C 1862.99,902.519 1861.49,906.686 1859,910.5C 1853.09,914.895 1847.76,914.228 1843,908.5C 1837.96,897.77 1840.13,889.103 1849.5,882.5 Z"/></g>
<g><path style="opacity:0.824" fill="#ebe5df" d="M -0.5,878.5 C 9.16667,878.5 18.8333,878.5 28.5,878.5C 28.5,880.167 28.5,881.833 28.5,883.5C 20.5,883.5 12.5,883.5 4.5,883.5C 4.5,887.5 4.5,891.5 4.5,895.5C 11.5,895.5 18.5,895.5 25.5,895.5C 25.5,897.167 25.5,898.833 25.5,900.5C 18.5,900.5 11.5,900.5 4.5,900.5C 4.5,904.833 4.5,909.167 4.5,913.5C 12.5,913.5 20.5,913.5 28.5,913.5C 28.5,914.833 28.5,916.167 28.5,917.5C 18.8333,917.5 9.16667,917.5 -0.5,917.5C -0.5,904.5 -0.5,891.5 -0.5,878.5 Z"/></g>
<g><path style="opacity:0.839" fill="#ebe5df" d="M 53.5,878.5 C 55.288,878.215 56.9547,878.548 58.5,879.5C 66,889.167 73.5,898.833 81,908.5C 81.4998,898.506 81.6665,888.506 81.5,878.5C 83.1667,878.5 84.8333,878.5 86.5,878.5C 86.5,891.5 86.5,904.5 86.5,917.5C 83.9556,917.896 81.7889,917.229 80,915.5C 73,906.5 66,897.5 59,888.5C 58.5002,898.161 58.3335,907.828 58.5,917.5C 56.8333,917.5 55.1667,917.5 53.5,917.5C 53.5,904.5 53.5,891.5 53.5,878.5 Z"/></g>
<g><path style="opacity:0.846" fill="#ebe5df" d="M 173.5,878.5 C 182.833,878.5 192.167,878.5 201.5,878.5C 201.5,880.167 201.5,881.833 201.5,883.5C 193.833,883.5 186.167,883.5 178.5,883.5C 178.5,887.5 178.5,891.5 178.5,895.5C 185.5,895.5 192.5,895.5 199.5,895.5C 199.5,897.167 199.5,898.833 199.5,900.5C 192.5,900.5 185.5,900.5 178.5,900.5C 178.5,904.833 178.5,909.167 178.5,913.5C 186.167,913.5 193.833,913.5 201.5,913.5C 201.5,914.833 201.5,916.167 201.5,917.5C 192.167,917.5 182.833,917.5 173.5,917.5C 173.5,904.5 173.5,891.5 173.5,878.5 Z"/></g>
<g><path style="opacity:0.839" fill="#ebe5df" d="M 226.5,878.5 C 229.652,877.959 232.152,878.959 234,881.5C 240.667,890.167 247.333,898.833 254,907.5C 254.5,897.839 254.666,888.172 254.5,878.5C 256.167,878.5 257.833,878.5 259.5,878.5C 259.5,891.5 259.5,904.5 259.5,917.5C 257.712,917.785 256.045,917.452 254.5,916.5C 247,906.833 239.5,897.167 232,887.5C 231.5,897.494 231.334,907.494 231.5,917.5C 229.833,917.5 228.167,917.5 226.5,917.5C 226.5,904.5 226.5,891.5 226.5,878.5 Z"/></g>
<g><path style="opacity:0.823" fill="#ebe5df" d="M 286.5,878.5 C 288.167,878.5 289.833,878.5 291.5,878.5C 291.5,884.167 291.5,889.833 291.5,895.5C 298.833,895.5 306.167,895.5 313.5,895.5C 313.5,889.833 313.5,884.167 313.5,878.5C 315.167,878.5 316.833,878.5 318.5,878.5C 318.5,891.5 318.5,904.5 318.5,917.5C 316.833,917.5 315.167,917.5 313.5,917.5C 313.5,911.833 313.5,906.167 313.5,900.5C 306.167,900.5 298.833,900.5 291.5,900.5C 291.5,906.167 291.5,911.833 291.5,917.5C 289.833,917.5 288.167,917.5 286.5,917.5C 286.5,904.5 286.5,891.5 286.5,878.5 Z"/></g>
<g><path style="opacity:0.83" fill="#ebe5df" d="M 345.5,878.5 C 354.833,878.5 364.167,878.5 373.5,878.5C 373.5,880.167 373.5,881.833 373.5,883.5C 365.833,883.5 358.167,883.5 350.5,883.5C 350.5,887.5 350.5,891.5 350.5,895.5C 357.5,895.5 364.5,895.5 371.5,895.5C 371.5,897.167 371.5,898.833 371.5,900.5C 364.5,900.5 357.5,900.5 350.5,900.5C 350.5,904.833 350.5,909.167 350.5,913.5C 358.5,913.5 366.5,913.5 374.5,913.5C 374.5,914.833 374.5,916.167 374.5,917.5C 364.833,917.5 355.167,917.5 345.5,917.5C 345.5,904.5 345.5,891.5 345.5,878.5 Z"/></g>
<g><path style="opacity:0.871" fill="#ebe5df" d="M 399.5,878.5 C 401.167,878.5 402.833,878.5 404.5,878.5C 404.5,891.5 404.5,904.5 404.5,917.5C 402.833,917.5 401.167,917.5 399.5,917.5C 399.5,904.5 399.5,891.5 399.5,878.5 Z"/></g>
<g><path style="opacity:0.833" fill="#ebe5df" d="M 431.5,878.5 C 438.508,878.334 445.508,878.5 452.5,879C 462.393,881.709 465.226,887.875 461,897.5C 458.621,899.884 455.787,901.384 452.5,902C 456.5,907 460.5,912 464.5,917C 462.167,917.667 459.833,917.667 457.5,917C 454.074,912.152 450.408,907.485 446.5,903C 443.183,902.502 439.85,902.335 436.5,902.5C 436.5,907.5 436.5,912.5 436.5,917.5C 434.833,917.5 433.167,917.5 431.5,917.5C 431.5,904.5 431.5,891.5 431.5,878.5 Z M 436.5,883.5 C 441.844,883.334 447.177,883.501 452.5,884C 457.626,886.553 458.793,890.386 456,895.5C 455.25,896.126 454.416,896.626 453.5,897C 447.928,898.351 442.262,898.851 436.5,898.5C 436.5,893.5 436.5,888.5 436.5,883.5 Z"/></g>
<g><path style="opacity:0.868" fill="#ebe5df" d="M 502.5,878.5 C 504.288,878.215 505.955,878.548 507.5,879.5C 513.36,891.749 519.027,904.082 524.5,916.5C 522.5,917.833 520.5,917.833 518.5,916.5C 517.568,913.47 516.235,910.637 514.5,908C 507.833,907.333 501.167,907.333 494.5,908C 493.311,910.878 491.978,913.712 490.5,916.5C 488.579,917.641 486.579,917.808 484.5,917C 490.369,904.096 496.369,891.262 502.5,878.5 Z M 504.5,885.5 C 507.392,890.955 510.058,896.622 512.5,902.5C 507.198,903.663 501.864,903.829 496.5,903C 499.31,897.215 501.976,891.382 504.5,885.5 Z"/></g>
<g><path style="opacity:0.828" fill="#ebe5df" d="M 564.5,878.5 C 574.167,878.5 583.833,878.5 593.5,878.5C 593.5,880.167 593.5,881.833 593.5,883.5C 585.5,883.5 577.5,883.5 569.5,883.5C 569.5,887.5 569.5,891.5 569.5,895.5C 576.5,895.5 583.5,895.5 590.5,895.5C 590.5,897.167 590.5,898.833 590.5,900.5C 583.5,900.5 576.5,900.5 569.5,900.5C 569.5,904.833 569.5,909.167 569.5,913.5C 577.5,913.5 585.5,913.5 593.5,913.5C 593.5,914.833 593.5,916.167 593.5,917.5C 583.833,917.5 574.167,917.5 564.5,917.5C 564.5,904.5 564.5,891.5 564.5,878.5 Z"/></g>
<g><path style="opacity:0.865" fill="#ebe5df" d="M 618.5,878.5 C 620.167,878.5 621.833,878.5 623.5,878.5C 623.5,890.167 623.5,901.833 623.5,913.5C 630.833,913.5 638.167,913.5 645.5,913.5C 645.5,914.833 645.5,916.167 645.5,917.5C 636.5,917.5 627.5,917.5 618.5,917.5C 618.5,904.5 618.5,891.5 618.5,878.5 Z"/></g>
<g><path style="opacity:0.846" fill="#ebe5df" d="M 669.5,878.5 C 678.833,878.5 688.167,878.5 697.5,878.5C 697.5,880.167 697.5,881.833 697.5,883.5C 689.833,883.5 682.167,883.5 674.5,883.5C 674.5,887.5 674.5,891.5 674.5,895.5C 681.5,895.5 688.5,895.5 695.5,895.5C 695.5,897.167 695.5,898.833 695.5,900.5C 688.5,900.5 681.5,900.5 674.5,900.5C 674.5,904.833 674.5,909.167 674.5,913.5C 682.167,913.5 689.833,913.5 697.5,913.5C 697.5,914.833 697.5,916.167 697.5,917.5C 688.167,917.5 678.833,917.5 669.5,917.5C 669.5,904.5 669.5,891.5 669.5,878.5 Z"/></g>
<g><path style="opacity:0.832" fill="#ebe5df" d="M 719.5,878.5 C 729.833,878.5 740.167,878.5 750.5,878.5C 750.5,880.167 750.5,881.833 750.5,883.5C 746.167,883.5 741.833,883.5 737.5,883.5C 737.5,894.833 737.5,906.167 737.5,917.5C 735.833,917.5 734.167,917.5 732.5,917.5C 732.5,906.167 732.5,894.833 732.5,883.5C 728.167,883.5 723.833,883.5 719.5,883.5C 719.5,881.833 719.5,880.167 719.5,878.5 Z"/></g>
<g><path style="opacity:0.845" fill="#ebe5df" d="M 775.5,878.5 C 782.508,878.334 789.508,878.5 796.5,879C 805.445,881.824 808.278,887.657 805,896.5C 802.9,899.467 800.066,901.3 796.5,902C 800.167,907 803.833,912 807.5,917C 805.098,917.814 802.765,917.647 800.5,916.5C 796.974,912.141 793.641,907.641 790.5,903C 787.183,902.502 783.85,902.335 780.5,902.5C 780.5,907.5 780.5,912.5 780.5,917.5C 778.833,917.5 777.167,917.5 775.5,917.5C 775.5,904.5 775.5,891.5 775.5,878.5 Z M 780.5,883.5 C 785.511,883.334 790.511,883.501 795.5,884C 802.345,887.363 803.011,891.696 797.5,897C 791.912,898.289 786.245,898.789 780.5,898.5C 780.5,893.5 780.5,888.5 780.5,883.5 Z"/></g>
<g><path style="opacity:0.728" fill="#ebe4de" d="M 831.5,878.5 C 833.5,878.5 835.5,878.5 837.5,878.5C 837.5,891.5 837.5,904.5 837.5,917.5C 835.5,917.5 833.5,917.5 831.5,917.5C 831.5,904.5 831.5,891.5 831.5,878.5 Z"/></g>
<g><path style="opacity:0.728" fill="#ebe4de" d="M 921.5,878.5 C 923.5,878.5 925.5,878.5 927.5,878.5C 927.5,891.5 927.5,904.5 927.5,917.5C 925.5,917.5 923.5,917.5 921.5,917.5C 921.5,904.5 921.5,891.5 921.5,878.5 Z"/></g>
<g><path style="opacity:0.848" fill="#ebe4de" d="M 960.5,878.5 C 967.837,877.399 974.503,878.899 980.5,883C 978.448,887.34 975.781,887.674 972.5,884C 968.809,882.155 965.143,882.155 961.5,884C 958.022,886.706 957.689,889.706 960.5,893C 964.683,894.796 969.016,896.129 973.5,897C 981.802,900.73 983.635,906.564 979,914.5C 969.323,920.316 960.157,919.483 951.5,912C 952.56,910.702 953.726,909.535 955,908.5C 957.235,910.371 959.735,911.871 962.5,913C 968.833,914.976 973.5,913.143 976.5,907.5C 975.872,905.742 974.872,904.242 973.5,903C 969.289,901.29 964.956,899.957 960.5,899C 954.205,896.575 952.038,892.075 954,885.5C 955.018,881.985 957.185,879.652 960.5,878.5 Z"/></g>
<g><path style="opacity:0.821" fill="#ebe5df" d="M 1002.5,878.5 C 1012.83,878.5 1023.17,878.5 1033.5,878.5C 1033.5,880.167 1033.5,881.833 1033.5,883.5C 1029.17,883.5 1024.83,883.5 1020.5,883.5C 1020.5,894.833 1020.5,906.167 1020.5,917.5C 1018.83,917.5 1017.17,917.5 1015.5,917.5C 1015.5,906.167 1015.5,894.833 1015.5,883.5C 1011.17,883.5 1006.83,883.5 1002.5,883.5C 1002.5,881.833 1002.5,880.167 1002.5,878.5 Z"/></g>
<g><path style="opacity:0.865" fill="#ebe5df" d="M 1066.5,878.5 C 1068.6,878.201 1070.6,878.534 1072.5,879.5C 1078.04,892.075 1083.7,904.575 1089.5,917C 1087.42,917.808 1085.42,917.641 1083.5,916.5C 1082.02,913.712 1080.69,910.878 1079.5,908C 1072.83,907.333 1066.17,907.333 1059.5,908C 1057.77,910.637 1056.43,913.47 1055.5,916.5C 1053.58,917.641 1051.58,917.808 1049.5,917C 1055.58,904.337 1061.25,891.503 1066.5,878.5 Z M 1068.5,885.5 C 1071.85,891.037 1074.85,896.871 1077.5,903C 1072.14,903.829 1066.8,903.663 1061.5,902.5C 1064.13,896.915 1066.46,891.249 1068.5,885.5 Z"/></g>
<g><path style="opacity:0.837" fill="#ebe5df" d="M 1203.5,878.5 C 1210.51,878.334 1217.51,878.5 1224.5,879C 1234.61,882.414 1237.11,888.914 1232,898.5C 1229.7,900.068 1227.2,901.235 1224.5,902C 1228.05,906.923 1231.71,911.756 1235.5,916.5C 1233.58,917.641 1231.58,917.808 1229.5,917C 1225.59,912.515 1221.93,907.848 1218.5,903C 1215.18,902.502 1211.85,902.335 1208.5,902.5C 1208.5,907.5 1208.5,912.5 1208.5,917.5C 1206.83,917.5 1205.17,917.5 1203.5,917.5C 1203.5,904.5 1203.5,891.5 1203.5,878.5 Z M 1208.5,883.5 C 1213.51,883.334 1218.51,883.501 1223.5,884C 1230.56,887.25 1231.22,891.583 1225.5,897C 1219.93,898.351 1214.26,898.851 1208.5,898.5C 1208.5,893.5 1208.5,888.5 1208.5,883.5 Z"/></g>
<g><path style="opacity:0.828" fill="#ebe5df" d="M 1259.5,878.5 C 1269.17,878.5 1278.83,878.5 1288.5,878.5C 1288.5,880.167 1288.5,881.833 1288.5,883.5C 1280.5,883.5 1272.5,883.5 1264.5,883.5C 1264.5,887.5 1264.5,891.5 1264.5,895.5C 1271.5,895.5 1278.5,895.5 1285.5,895.5C 1285.5,897.167 1285.5,898.833 1285.5,900.5C 1278.5,900.5 1271.5,900.5 1264.5,900.5C 1264.5,904.833 1264.5,909.167 1264.5,913.5C 1272.5,913.5 1280.5,913.5 1288.5,913.5C 1288.5,914.833 1288.5,916.167 1288.5,917.5C 1278.83,917.5 1269.17,917.5 1259.5,917.5C 1259.5,904.5 1259.5,891.5 1259.5,878.5 Z"/></g>
<g><path style="opacity:0.873" fill="#ebe4df" d="M 1327.5,878.5 C 1329.47,878.261 1331.3,878.594 1333,879.5C 1338.5,891.833 1344,904.167 1349.5,916.5C 1347.93,917.631 1346.26,917.798 1344.5,917C 1342.77,914.363 1341.43,911.53 1340.5,908.5C 1333.5,907.167 1326.5,907.167 1319.5,908.5C 1318.06,911.05 1316.89,913.716 1316,916.5C 1314.3,917.406 1312.47,917.739 1310.5,917.5C 1315.89,904.389 1321.55,891.389 1327.5,878.5 Z M 1329.5,885.5 C 1332.73,891.185 1335.4,897.185 1337.5,903.5C 1332.16,903.666 1326.82,903.499 1321.5,903C 1324.31,897.22 1326.97,891.387 1329.5,885.5 Z"/></g>
<g><path style="opacity:0.835" fill="#ebe5df" d="M 1418.5,878.5 C 1424.84,878.334 1431.18,878.5 1437.5,879C 1445.96,881.415 1449.13,886.915 1447,895.5C 1445.18,900.336 1441.68,903.169 1436.5,904C 1432.18,904.499 1427.85,904.666 1423.5,904.5C 1423.5,908.833 1423.5,913.167 1423.5,917.5C 1421.83,917.5 1420.17,917.5 1418.5,917.5C 1418.5,904.5 1418.5,891.5 1418.5,878.5 Z M 1423.5,883.5 C 1427.85,883.334 1432.18,883.501 1436.5,884C 1442.31,886.128 1443.81,889.961 1441,895.5C 1439.79,897.049 1438.29,898.215 1436.5,899C 1432.18,899.499 1427.85,899.666 1423.5,899.5C 1423.5,894.167 1423.5,888.833 1423.5,883.5 Z"/></g>
<g><path style="opacity:0.865" fill="#ebe5df" d="M 1481.5,878.5 C 1483.6,878.201 1485.6,878.534 1487.5,879.5C 1493.04,892.075 1498.7,904.575 1504.5,917C 1502.42,917.808 1500.42,917.641 1498.5,916.5C 1497.02,913.712 1495.69,910.878 1494.5,908C 1487.83,907.333 1481.17,907.333 1474.5,908C 1472.77,910.637 1471.43,913.47 1470.5,916.5C 1468.58,917.641 1466.58,917.808 1464.5,917C 1470.58,904.337 1476.25,891.503 1481.5,878.5 Z M 1483.5,885.5 C 1486.85,891.037 1489.85,896.871 1492.5,903C 1487.14,903.829 1481.8,903.663 1476.5,902.5C 1479.13,896.915 1481.46,891.249 1483.5,885.5 Z"/></g>
<g><path style="opacity:0.878" fill="#ebe5df" d="M 1547.5,878.5 C 1549.5,878.5 1551.5,878.5 1553.5,878.5C 1553.5,891.5 1553.5,904.5 1553.5,917.5C 1551.83,917.5 1550.17,917.5 1548.5,917.5C 1548.5,906.5 1548.5,895.5 1548.5,884.5C 1546.6,884.433 1544.77,884.767 1543,885.5C 1541.5,885.333 1540.67,884.5 1540.5,883C 1542.69,881.222 1545.02,879.722 1547.5,878.5 Z"/></g>
<g><path style="opacity:0.813" fill="#ebe4df" d="M 1581.5,878.5 C 1589.17,878.5 1596.83,878.5 1604.5,878.5C 1604.5,880.167 1604.5,881.833 1604.5,883.5C 1598.5,883.5 1592.5,883.5 1586.5,883.5C 1586.09,887.264 1586.09,890.93 1586.5,894.5C 1602.17,891 1608.33,897 1605,912.5C 1596.84,920.163 1588.34,920.497 1579.5,913.5C 1578.17,911.182 1578.83,909.515 1581.5,908.5C 1586.67,913.707 1592.5,914.707 1599,911.5C 1603.14,903.786 1600.81,899.119 1592,897.5C 1589.14,898.046 1586.47,899.046 1584,900.5C 1583.31,899.643 1582.48,898.977 1581.5,898.5C 1581.32,891.935 1581.32,885.268 1581.5,878.5 Z"/></g>
<g><path style="opacity:0.871" fill="#ebe4df" d="M 1636.5,878.5 C 1652.97,876.783 1658.14,883.45 1652,898.5C 1646.74,903.217 1641.57,908.051 1636.5,913C 1642.82,913.5 1649.16,913.666 1655.5,913.5C 1655.5,914.833 1655.5,916.167 1655.5,917.5C 1646.17,917.5 1636.83,917.5 1627.5,917.5C 1627.34,916.127 1627.51,914.793 1628,913.5C 1632.5,909.667 1637,905.833 1641.5,902C 1647.13,898.247 1649.63,893.08 1649,886.5C 1645.86,882.423 1642.03,881.59 1637.5,884C 1635.67,885.833 1633.83,887.667 1632,889.5C 1631,888.833 1630,888.167 1629,887.5C 1629.04,885.721 1629.71,884.055 1631,882.5C 1633.02,881.303 1634.85,879.97 1636.5,878.5 Z"/></g>
<g><path style="opacity:0.812" fill="#ebe5df" d="M 1737.5,878.5 C 1745.17,878.5 1752.83,878.5 1760.5,878.5C 1760.5,880.167 1760.5,881.833 1760.5,883.5C 1754.17,883.5 1747.83,883.5 1741.5,883.5C 1741.33,887.182 1741.5,890.848 1742,894.5C 1752.86,890.937 1759.69,894.604 1762.5,905.5C 1759.63,917.318 1752.3,921.151 1740.5,917C 1737.64,916.07 1735.31,914.403 1733.5,912C 1734.67,910.833 1735.83,909.667 1737,908.5C 1743.16,914.531 1749.49,914.864 1756,909.5C 1757.82,902.478 1755.16,898.478 1748,897.5C 1745.14,898.046 1742.47,899.046 1740,900.5C 1739,899.833 1738,899.167 1737,898.5C 1736.53,891.82 1736.69,885.154 1737.5,878.5 Z"/></g>
<g><path style="opacity:0.817" fill="#ebe5df" d="M 1787.5,878.5 C 1795.17,878.5 1802.83,878.5 1810.5,878.5C 1810.5,880.167 1810.5,881.833 1810.5,883.5C 1804.5,883.5 1798.5,883.5 1792.5,883.5C 1791.41,887.178 1791.41,890.845 1792.5,894.5C 1799.9,892.041 1806.07,893.708 1811,899.5C 1813.86,913.644 1808.03,919.81 1793.5,918C 1790.55,917.194 1787.89,915.861 1785.5,914C 1784.05,911.507 1784.72,909.673 1787.5,908.5C 1793.49,914.579 1799.66,914.912 1806,909.5C 1808.33,902.461 1805.67,898.461 1798,897.5C 1795.14,898.046 1792.47,899.046 1790,900.5C 1789,899.833 1788,899.167 1787,898.5C 1787.05,891.85 1787.22,885.184 1787.5,878.5 Z"/></g>
<g><path style="opacity:0.835" fill="#ebe4de" d="M 1899.5,878.5 C 1903.51,878.334 1907.51,878.501 1911.5,879C 1917.8,881.425 1919.96,885.925 1918,892.5C 1917.03,894.305 1915.86,895.972 1914.5,897.5C 1922.69,904.407 1922.35,910.907 1913.5,917C 1907.34,919.24 1901.34,918.907 1895.5,916C 1888.61,909.434 1888.94,903.267 1896.5,897.5C 1889.34,889.826 1890.34,883.492 1899.5,878.5 Z M 1902.5,882.5 C 1909.74,881.586 1913.24,884.586 1913,891.5C 1908.28,896.366 1903.28,896.699 1898,892.5C 1896.09,887.742 1897.59,884.409 1902.5,882.5 Z M 1900.5,900.5 C 1904.78,899.989 1908.78,900.656 1912.5,902.5C 1916,909.874 1913.5,913.541 1905,913.5C 1900.01,913.928 1896.85,911.761 1895.5,907C 1896.28,904.062 1897.95,901.896 1900.5,900.5 Z"/></g>
<g><path style="opacity:0.749" fill="#ebe4df" d="M 1948.5,878.5 C 1950.5,878.5 1952.5,878.5 1954.5,878.5C 1954.5,891.5 1954.5,904.5 1954.5,917.5C 1952.5,917.5 1950.5,917.5 1948.5,917.5C 1948.5,906.5 1948.5,895.5 1948.5,884.5C 1946.8,884.62 1945.13,884.954 1943.5,885.5C 1941.83,885.167 1940.83,884.167 1940.5,882.5C 1943.15,880.962 1945.81,879.628 1948.5,878.5 Z"/></g>
<g><path style="opacity:0.88" fill="#ebe5df" d="M 2026.5,878.5 C 2036.48,876.138 2042.48,879.805 2044.5,889.5C 2044.53,892.433 2043.7,895.1 2042,897.5C 2036.8,903.033 2031.3,908.2 2025.5,913C 2031.82,913.5 2038.16,913.666 2044.5,913.5C 2044.5,914.833 2044.5,916.167 2044.5,917.5C 2035.5,917.5 2026.5,917.5 2017.5,917.5C 2017.34,916.127 2017.51,914.793 2018,913.5C 2024.64,907.866 2030.97,901.866 2037,895.5C 2040.91,888.745 2039.08,884.411 2031.5,882.5C 2027.12,883.356 2023.79,885.689 2021.5,889.5C 2020.3,888.469 2018.97,887.635 2017.5,887C 2019.74,883.257 2022.74,880.424 2026.5,878.5 Z"/></g>
<g><path style="opacity:0.83" fill="#ebe5df" d="M 1978.5,898.5 C 1983.83,898.5 1989.17,898.5 1994.5,898.5C 1994.5,900.167 1994.5,901.833 1994.5,903.5C 1989.17,903.5 1983.83,903.5 1978.5,903.5C 1978.5,901.833 1978.5,900.167 1978.5,898.5 Z"/></g>
</svg>
